# xmcd
#
# Track frame offsets: 
#        150
#        8605
#        23398
#        39605
#        55058
#        75090
#        95253
#        115555
#        132133
#        145653
#        160635
#        179778
#        203983
#        215568
#        230365
#        249538
#        267298
#        288330
#        309765
#
# Disc length: 4397 seconds
#
# Revision: 2
# Processed by: cddbd v1.5.2PL0 Copyright (c) Steve Scherf et al.
# Submitted via: ExactAudioCopy v1.0b3
#
DISCID=ea112b13
DTITLE=Various Artist - ALOHA HEAVEN - MOANI -
DYEAR=2004
DGENRE=World
TTITLE0=Makana - Moana Chimes
TTITLE1=Amy Hanaialii Gilliom - Molokai Waltz - Imi Au Ia Oe
TTITLE2=Keali'i Reichel - Mele Ohana
TTITLE3=Willie K - Noe Noe Ua Kea O Hana
TTITLE4=Na Leo Pilimehana - In Your Smile
TTITLE5=Makana - Kuu Lei Awapuhi
TTITLE6=Maunalua - Kealohalani
TTITLE7=Robi Kahakalau - Firelady
TTITLE8=Na Leo Pilimehana - Makee Ailana
TTITLE9=Amy Hanaialii Gilliom - He Pua Maoli No
TTITLE10=Willie K - Kuu Home O Keaukaha
TTITLE11=Konishiki - Pua Olena
TTITLE12=Nakana - Opihi Moe Moe
TTITLE13=Robi Kahakalau - Ka Opae
TTITLE14=Maunalua - Pua Tuberose
TTITLE15=Keali'i Reichel - Ka Nohona Pili Kai
TTITLE16=Maunalua - Hanohano Hanalei - Nani Hanalei
TTITLE17=Na Leo Pilimehana - I Miss You My Hawaii
TTITLE18=Jake Shimabukuro - Wish On My Star
EXTD=YEAR: 2004
EXTT0=
EXTT1=
EXTT2=
EXTT3=
EXTT4=
EXTT5=
EXTT6=
EXTT7=
EXTT8=
EXTT9=
EXTT10=
EXTT11=
EXTT12=
EXTT13=
EXTT14=
EXTT15=
EXTT16=
EXTT17=
EXTT18=
PLAYORDER=
